<mxfile host="app.diagrams.net" modified="2021-09-25T13:48:10.011Z" agent="5.0 (Windows NT 10.0; Win64; x64) AppleWebKit/537.36 (KHTML, like Gecko) Chrome/93.0.4577.82 Safari/537.36 Edg/93.0.961.52" etag="v9oJQbwEAK6VVjtKiP65" version="15.2.9" type="github">
  <diagram name="Base64" id="bd83a815-5ea8-2e97-e5ec-87c9f400f2fa">
    <mxGraphModel dx="1092" dy="553" grid="1" gridSize="10" guides="1" tooltips="1" connect="1" arrows="1" fold="1" page="1" pageScale="1.5" pageWidth="1169" pageHeight="826" background="none" math="0" shadow="0">
      <root>
        <mxCell id="0" style=";html=1;" />
        <mxCell id="1" style=";html=1;" parent="0" />
        <mxCell id="DNKsubXrQRCQ01RueC1s-43" value="0" style="whiteSpace=wrap;html=1;aspect=fixed;" vertex="1" parent="1">
          <mxGeometry x="460" y="590" width="20" height="20" as="geometry" />
        </mxCell>
        <mxCell id="DNKsubXrQRCQ01RueC1s-44" value="1" style="whiteSpace=wrap;html=1;aspect=fixed;" vertex="1" parent="1">
          <mxGeometry x="480" y="590" width="20" height="20" as="geometry" />
        </mxCell>
        <mxCell id="DNKsubXrQRCQ01RueC1s-45" value="1" style="whiteSpace=wrap;html=1;aspect=fixed;" vertex="1" parent="1">
          <mxGeometry x="500" y="590" width="20" height="20" as="geometry" />
        </mxCell>
        <mxCell id="DNKsubXrQRCQ01RueC1s-46" value="0" style="whiteSpace=wrap;html=1;aspect=fixed;" vertex="1" parent="1">
          <mxGeometry x="520" y="590" width="20" height="20" as="geometry" />
        </mxCell>
        <mxCell id="DNKsubXrQRCQ01RueC1s-47" value="1" style="whiteSpace=wrap;html=1;aspect=fixed;" vertex="1" parent="1">
          <mxGeometry x="540" y="590" width="20" height="20" as="geometry" />
        </mxCell>
        <mxCell id="DNKsubXrQRCQ01RueC1s-48" value="0" style="whiteSpace=wrap;html=1;aspect=fixed;" vertex="1" parent="1">
          <mxGeometry x="560" y="590" width="20" height="20" as="geometry" />
        </mxCell>
        <mxCell id="DNKsubXrQRCQ01RueC1s-49" value="0" style="whiteSpace=wrap;html=1;aspect=fixed;" vertex="1" parent="1">
          <mxGeometry x="580" y="590" width="20" height="20" as="geometry" />
        </mxCell>
        <mxCell id="DNKsubXrQRCQ01RueC1s-50" value="0" style="whiteSpace=wrap;html=1;aspect=fixed;" vertex="1" parent="1">
          <mxGeometry x="600" y="590" width="20" height="20" as="geometry" />
        </mxCell>
        <mxCell id="DNKsubXrQRCQ01RueC1s-51" value="0" style="whiteSpace=wrap;html=1;aspect=fixed;" vertex="1" parent="1">
          <mxGeometry x="620" y="590" width="20" height="20" as="geometry" />
        </mxCell>
        <mxCell id="DNKsubXrQRCQ01RueC1s-52" value="1" style="whiteSpace=wrap;html=1;aspect=fixed;" vertex="1" parent="1">
          <mxGeometry x="640" y="590" width="20" height="20" as="geometry" />
        </mxCell>
        <mxCell id="DNKsubXrQRCQ01RueC1s-53" value="1" style="whiteSpace=wrap;html=1;aspect=fixed;" vertex="1" parent="1">
          <mxGeometry x="660" y="590" width="20" height="20" as="geometry" />
        </mxCell>
        <mxCell id="DNKsubXrQRCQ01RueC1s-54" value="0" style="whiteSpace=wrap;html=1;aspect=fixed;" vertex="1" parent="1">
          <mxGeometry x="680" y="590" width="20" height="20" as="geometry" />
        </mxCell>
        <mxCell id="DNKsubXrQRCQ01RueC1s-55" value="0" style="whiteSpace=wrap;html=1;aspect=fixed;" vertex="1" parent="1">
          <mxGeometry x="700" y="590" width="20" height="20" as="geometry" />
        </mxCell>
        <mxCell id="DNKsubXrQRCQ01RueC1s-56" value="1" style="whiteSpace=wrap;html=1;aspect=fixed;" vertex="1" parent="1">
          <mxGeometry x="720" y="590" width="20" height="20" as="geometry" />
        </mxCell>
        <mxCell id="DNKsubXrQRCQ01RueC1s-57" value="0" style="whiteSpace=wrap;html=1;aspect=fixed;" vertex="1" parent="1">
          <mxGeometry x="740" y="590" width="20" height="20" as="geometry" />
        </mxCell>
        <mxCell id="DNKsubXrQRCQ01RueC1s-58" value="1" style="whiteSpace=wrap;html=1;aspect=fixed;" vertex="1" parent="1">
          <mxGeometry x="760" y="590" width="20" height="20" as="geometry" />
        </mxCell>
        <mxCell id="DNKsubXrQRCQ01RueC1s-59" value="0" style="whiteSpace=wrap;html=1;aspect=fixed;" vertex="1" parent="1">
          <mxGeometry x="780" y="590" width="20" height="20" as="geometry" />
        </mxCell>
        <mxCell id="DNKsubXrQRCQ01RueC1s-60" value="1" style="whiteSpace=wrap;html=1;aspect=fixed;" vertex="1" parent="1">
          <mxGeometry x="800" y="590" width="20" height="20" as="geometry" />
        </mxCell>
        <mxCell id="DNKsubXrQRCQ01RueC1s-61" value="1" style="whiteSpace=wrap;html=1;aspect=fixed;" vertex="1" parent="1">
          <mxGeometry x="820" y="590" width="20" height="20" as="geometry" />
        </mxCell>
        <mxCell id="DNKsubXrQRCQ01RueC1s-62" value="0" style="whiteSpace=wrap;html=1;aspect=fixed;" vertex="1" parent="1">
          <mxGeometry x="840" y="590" width="20" height="20" as="geometry" />
        </mxCell>
        <mxCell id="DNKsubXrQRCQ01RueC1s-63" value="1" style="whiteSpace=wrap;html=1;aspect=fixed;" vertex="1" parent="1">
          <mxGeometry x="860" y="590" width="20" height="20" as="geometry" />
        </mxCell>
        <mxCell id="DNKsubXrQRCQ01RueC1s-64" value="1" style="whiteSpace=wrap;html=1;aspect=fixed;" vertex="1" parent="1">
          <mxGeometry x="880" y="590" width="20" height="20" as="geometry" />
        </mxCell>
        <mxCell id="DNKsubXrQRCQ01RueC1s-65" value="0" style="whiteSpace=wrap;html=1;aspect=fixed;" vertex="1" parent="1">
          <mxGeometry x="900" y="590" width="20" height="20" as="geometry" />
        </mxCell>
        <mxCell id="DNKsubXrQRCQ01RueC1s-66" value="0" style="whiteSpace=wrap;html=1;aspect=fixed;" vertex="1" parent="1">
          <mxGeometry x="920" y="590" width="20" height="20" as="geometry" />
        </mxCell>
        <mxCell id="DNKsubXrQRCQ01RueC1s-67" value="h" style="rounded=0;whiteSpace=wrap;html=1;" vertex="1" parent="1">
          <mxGeometry x="460" y="570" width="160" height="20" as="geometry" />
        </mxCell>
        <mxCell id="DNKsubXrQRCQ01RueC1s-68" value="e" style="rounded=0;whiteSpace=wrap;html=1;" vertex="1" parent="1">
          <mxGeometry x="620" y="570" width="160" height="20" as="geometry" />
        </mxCell>
        <mxCell id="DNKsubXrQRCQ01RueC1s-69" value="l" style="rounded=0;whiteSpace=wrap;html=1;" vertex="1" parent="1">
          <mxGeometry x="780" y="570" width="160" height="20" as="geometry" />
        </mxCell>
        <mxCell id="DNKsubXrQRCQ01RueC1s-70" value="0" style="whiteSpace=wrap;html=1;aspect=fixed;" vertex="1" parent="1">
          <mxGeometry x="940" y="590" width="20" height="20" as="geometry" />
        </mxCell>
        <mxCell id="DNKsubXrQRCQ01RueC1s-71" value="1" style="whiteSpace=wrap;html=1;aspect=fixed;" vertex="1" parent="1">
          <mxGeometry x="960" y="590" width="20" height="20" as="geometry" />
        </mxCell>
        <mxCell id="DNKsubXrQRCQ01RueC1s-72" value="1" style="whiteSpace=wrap;html=1;aspect=fixed;" vertex="1" parent="1">
          <mxGeometry x="980" y="590" width="20" height="20" as="geometry" />
        </mxCell>
        <mxCell id="DNKsubXrQRCQ01RueC1s-73" value="0" style="whiteSpace=wrap;html=1;aspect=fixed;" vertex="1" parent="1">
          <mxGeometry x="1000" y="590" width="20" height="20" as="geometry" />
        </mxCell>
        <mxCell id="DNKsubXrQRCQ01RueC1s-74" value="1" style="whiteSpace=wrap;html=1;aspect=fixed;" vertex="1" parent="1">
          <mxGeometry x="1020" y="590" width="20" height="20" as="geometry" />
        </mxCell>
        <mxCell id="DNKsubXrQRCQ01RueC1s-75" value="1" style="whiteSpace=wrap;html=1;aspect=fixed;" vertex="1" parent="1">
          <mxGeometry x="1040" y="590" width="20" height="20" as="geometry" />
        </mxCell>
        <mxCell id="DNKsubXrQRCQ01RueC1s-76" value="0" style="whiteSpace=wrap;html=1;aspect=fixed;" vertex="1" parent="1">
          <mxGeometry x="1060" y="590" width="20" height="20" as="geometry" />
        </mxCell>
        <mxCell id="DNKsubXrQRCQ01RueC1s-77" value="0" style="whiteSpace=wrap;html=1;aspect=fixed;" vertex="1" parent="1">
          <mxGeometry x="1080" y="590" width="20" height="20" as="geometry" />
        </mxCell>
        <mxCell id="DNKsubXrQRCQ01RueC1s-78" value="0" style="whiteSpace=wrap;html=1;aspect=fixed;" vertex="1" parent="1">
          <mxGeometry x="1100" y="590" width="20" height="20" as="geometry" />
        </mxCell>
        <mxCell id="DNKsubXrQRCQ01RueC1s-79" value="1" style="whiteSpace=wrap;html=1;aspect=fixed;" vertex="1" parent="1">
          <mxGeometry x="1120" y="590" width="20" height="20" as="geometry" />
        </mxCell>
        <mxCell id="DNKsubXrQRCQ01RueC1s-80" value="1" style="whiteSpace=wrap;html=1;aspect=fixed;" vertex="1" parent="1">
          <mxGeometry x="1140" y="590" width="20" height="20" as="geometry" />
        </mxCell>
        <mxCell id="DNKsubXrQRCQ01RueC1s-81" value="0" style="whiteSpace=wrap;html=1;aspect=fixed;" vertex="1" parent="1">
          <mxGeometry x="1160" y="590" width="20" height="20" as="geometry" />
        </mxCell>
        <mxCell id="DNKsubXrQRCQ01RueC1s-82" value="1" style="whiteSpace=wrap;html=1;aspect=fixed;" vertex="1" parent="1">
          <mxGeometry x="1180" y="590" width="20" height="20" as="geometry" />
        </mxCell>
        <mxCell id="DNKsubXrQRCQ01RueC1s-83" value="1" style="whiteSpace=wrap;html=1;aspect=fixed;" vertex="1" parent="1">
          <mxGeometry x="1200" y="590" width="20" height="20" as="geometry" />
        </mxCell>
        <mxCell id="DNKsubXrQRCQ01RueC1s-84" value="1" style="whiteSpace=wrap;html=1;aspect=fixed;" vertex="1" parent="1">
          <mxGeometry x="1220" y="590" width="20" height="20" as="geometry" />
        </mxCell>
        <mxCell id="DNKsubXrQRCQ01RueC1s-85" value="1" style="whiteSpace=wrap;html=1;aspect=fixed;" vertex="1" parent="1">
          <mxGeometry x="1240" y="590" width="20" height="20" as="geometry" />
        </mxCell>
        <mxCell id="DNKsubXrQRCQ01RueC1s-86" value="l" style="rounded=0;whiteSpace=wrap;html=1;" vertex="1" parent="1">
          <mxGeometry x="940" y="570" width="160" height="20" as="geometry" />
        </mxCell>
        <mxCell id="DNKsubXrQRCQ01RueC1s-87" value="o" style="rounded=0;whiteSpace=wrap;html=1;" vertex="1" parent="1">
          <mxGeometry x="1100" y="570" width="160" height="20" as="geometry" />
        </mxCell>
        <mxCell id="DNKsubXrQRCQ01RueC1s-88" value="a" style="whiteSpace=wrap;html=1;" vertex="1" parent="1">
          <mxGeometry x="460" y="610" width="120" height="20" as="geometry" />
        </mxCell>
        <mxCell id="DNKsubXrQRCQ01RueC1s-89" value="G" style="whiteSpace=wrap;html=1;" vertex="1" parent="1">
          <mxGeometry x="580" y="610" width="120" height="20" as="geometry" />
        </mxCell>
        <mxCell id="DNKsubXrQRCQ01RueC1s-90" value="V" style="whiteSpace=wrap;html=1;" vertex="1" parent="1">
          <mxGeometry x="700" y="610" width="120" height="20" as="geometry" />
        </mxCell>
        <mxCell id="DNKsubXrQRCQ01RueC1s-91" value="s" style="whiteSpace=wrap;html=1;" vertex="1" parent="1">
          <mxGeometry x="820" y="610" width="120" height="20" as="geometry" />
        </mxCell>
        <mxCell id="DNKsubXrQRCQ01RueC1s-92" value="b" style="whiteSpace=wrap;html=1;" vertex="1" parent="1">
          <mxGeometry x="940" y="610" width="120" height="20" as="geometry" />
        </mxCell>
        <mxCell id="DNKsubXrQRCQ01RueC1s-93" value="G" style="whiteSpace=wrap;html=1;" vertex="1" parent="1">
          <mxGeometry x="1060" y="610" width="120" height="20" as="geometry" />
        </mxCell>
        <mxCell id="DNKsubXrQRCQ01RueC1s-94" value="8" style="whiteSpace=wrap;html=1;" vertex="1" parent="1">
          <mxGeometry x="1180" y="610" width="120" height="20" as="geometry" />
        </mxCell>
        <mxCell id="DNKsubXrQRCQ01RueC1s-95" value="0" style="whiteSpace=wrap;html=1;aspect=fixed;" vertex="1" parent="1">
          <mxGeometry x="1260" y="590" width="20" height="20" as="geometry" />
        </mxCell>
        <mxCell id="DNKsubXrQRCQ01RueC1s-96" value="0" style="whiteSpace=wrap;html=1;aspect=fixed;" vertex="1" parent="1">
          <mxGeometry x="1280" y="590" width="20" height="20" as="geometry" />
        </mxCell>
        <mxCell id="DNKsubXrQRCQ01RueC1s-98" value="0" style="whiteSpace=wrap;html=1;aspect=fixed;" vertex="1" parent="1">
          <mxGeometry x="1300" y="590" width="20" height="20" as="geometry" />
        </mxCell>
        <mxCell id="DNKsubXrQRCQ01RueC1s-99" value="0" style="whiteSpace=wrap;html=1;aspect=fixed;" vertex="1" parent="1">
          <mxGeometry x="1320" y="590" width="20" height="20" as="geometry" />
        </mxCell>
        <mxCell id="DNKsubXrQRCQ01RueC1s-100" value="0" style="whiteSpace=wrap;html=1;aspect=fixed;" vertex="1" parent="1">
          <mxGeometry x="1340" y="590" width="20" height="20" as="geometry" />
        </mxCell>
        <mxCell id="DNKsubXrQRCQ01RueC1s-101" value="0" style="whiteSpace=wrap;html=1;aspect=fixed;" vertex="1" parent="1">
          <mxGeometry x="1360" y="590" width="20" height="20" as="geometry" />
        </mxCell>
        <mxCell id="DNKsubXrQRCQ01RueC1s-102" value="0" style="whiteSpace=wrap;html=1;aspect=fixed;" vertex="1" parent="1">
          <mxGeometry x="1380" y="590" width="20" height="20" as="geometry" />
        </mxCell>
        <mxCell id="DNKsubXrQRCQ01RueC1s-103" value="0" style="whiteSpace=wrap;html=1;aspect=fixed;" vertex="1" parent="1">
          <mxGeometry x="1400" y="590" width="20" height="20" as="geometry" />
        </mxCell>
        <mxCell id="DNKsubXrQRCQ01RueC1s-104" value="=" style="whiteSpace=wrap;html=1;" vertex="1" parent="1">
          <mxGeometry x="1300" y="610" width="120" height="20" as="geometry" />
        </mxCell>
        <mxCell id="DNKsubXrQRCQ01RueC1s-105" value="ASCII" style="rounded=0;whiteSpace=wrap;html=1;" vertex="1" parent="1">
          <mxGeometry x="380" y="570" width="80" height="20" as="geometry" />
        </mxCell>
        <mxCell id="DNKsubXrQRCQ01RueC1s-106" value="二进制" style="rounded=0;whiteSpace=wrap;html=1;" vertex="1" parent="1">
          <mxGeometry x="380" y="590" width="80" height="20" as="geometry" />
        </mxCell>
        <mxCell id="DNKsubXrQRCQ01RueC1s-107" value="Base64" style="rounded=0;whiteSpace=wrap;html=1;" vertex="1" parent="1">
          <mxGeometry x="380" y="610" width="80" height="20" as="geometry" />
        </mxCell>
      </root>
    </mxGraphModel>
  </diagram>
</mxfile>
